PathFileType	4	(X/Y/Z)	E:\Marcel_BSc\Ayumi_22_01_2025\22-01-2025\conv_dl_2.trc
DataRate	CameraRate	NumFrames	NumMarkers	Units	OrigDataRate	OrigDataStartFrame	OrigNumFrames
200.0	200.0	8	48	mm	200.0	579	2314	
Frame#	Time	FHD			LBHD			RBHD			RBAR			LBAR			RSACR			LSACR			LASI			USACR			LTHI2			C7			CLAV			T10			RSHO			LSHO			LTHI1			LTHI3			LTIB1			LTIB2			LTIB3			LMMAL			LLMAL			LHEE			LMT1			LMT5			LMT3			RTHI1			RTHI2			RTHI3			RTIB1			RTIB3			RTIB2			RLMAL			RMMAL			RHEE			RMT5			RMT1			RMT3			LDUPA			LMUPA			LUUPA			LRAD			RUL			RRAD			RUFIN			RMUPA			RDUPA			RUUPA			
		X1	Y1	Z1	X2	Y2	Z2	X3	Y3	Z3	X4	Y4	Z4	X5	Y5	Z5	X6	Y6	Z6	X7	Y7	Z7	X8	Y8	Z8	X9	Y9	Z9	X10	Y10	Z10	X11	Y11	Z11	X12	Y12	Z12	X13	Y13	Z13	X14	Y14	Z14	X15	Y15	Z15	X16	Y16	Z16	X17	Y17	Z17	X18	Y18	Z18	X19	Y19	Z19	X20	Y20	Z20	X21	Y21	Z21	X22	Y22	Z22	X23	Y23	Z23	X24	Y24	Z24	X25	Y25	Z25	X26	Y26	Z26	X27	Y27	Z27	X28	Y28	Z28	X29	Y29	Z29	X30	Y30	Z30	X31	Y31	Z31	X32	Y32	Z32	X33	Y33	Z33	X34	Y34	Z34	X35	Y35	Z35	X36	Y36	Z36	X37	Y37	Z37	X38	Y38	Z38	X39	Y39	Z39	X40	Y40	Z40	X41	Y41	Z41	X42	Y42	Z42	X43	Y43	Z43	X44	Y44	Z44	X45	Y45	Z45	X46	Y46	Z46	X47	Y47	Z47	X48	Y48	Z48	
579	2.885	-198.18251	988.06964	-598.79572	-177.0515	996.34894	-538.74304	-152.45599	1014.2468	-666.84229	218.15005	239.67657	-1724.7872	193.77162	251.28311	497.66141	492.57343	871.01324	-662.31848	491.55112	870.86639	-589.38281				482.41962	877.4989	-625.35388	283.38293	532.54736	-434.60068	68.091988	1077.5033	-590.05731	70.889351	917.19708	-599.37799	332.29395	967.11749	-613.88696	27.128901	935.22699	-737.45575	55.307907	936.48993	-442.72729	345.70877	551.78198	-428.76593	318.13113	497.7576	-443.60669	246.77809	236.01959	-427.14957	297.88226	237.04671	-429.8291	273.36417	176.4205	-435.76477	280.91846	74.173439	-520.16205	300.36374	72.996605	-445.63956	341.40414	36.817177	-489.72073	144.09976	45.097202	-473.33344	174.42291	29.001099	-397.96658	146.96776	42.521545	-438.03326	345.30045	548.46588	-819.64868	282.76529	529.56348	-811.26044	316.90668	492.8869	-796.91199	246.31485	268.83362	-810.3631	274.23834	210.7236	-800.15985	296.4592	272.15381	-807.67664	305.6174	75.005745	-774.37439	271.15137	79.124634	-703.71265	348.45847	32.249298	-727.58905	177.427	33.726681	-814.77484	149.04373	42.114559	-754.63379	156.312	39.585892	-785.25079	197.7599	784.6452	-372.94913	148.40742	775.50391	-373.76678	136.64435	836.15479	-377.08621	219.16943	468.59418	-297.39191	159.0034	477.37695	-921.1015	146.138	459.63327	-862.21246	138.24445	393.38516	-875.82928	91.823143	857.61127	-829.91052	110.71838	802.22546	-851.94598	134.79584	877.39081	-844.51782
580	2.89	-197.99208	983.96393	-598.74976	-177.3152	992.5141	-538.65961	-152.81491	1010.4244	-666.72906	218.15329	239.6548	-1724.8143	193.70226	251.29706	497.71747	493.0806	869.69269	-662.25146	491.9064	869.61377	-589.29987				482.73792	875.94745	-625.25909	283.35266	532.28461	-434.76587	67.382324	1074.3433	-590.07684	70.991539	914.08099	-599.34863	332.15363	965.37231	-613.88916	26.914972	931.66278	-737.00769	54.96674	932.89746	-442.76572	344.21655	551.83167	-429.28564	317.71512	497.4231	-444.58673	246.61423	236.00578	-427.21112	297.80591	237.00725	-429.8703	273.21637	176.39397	-435.81259	280.87299	74.155151	-520.18219	300.33517	73.004219	-445.63684	341.40714	36.820744	-489.71957	144.09195	45.091167	-473.35919	174.41647	29.013735	-397.98532	146.98189	42.511322	-438.03964	345.32758	548.48145	-819.28436	283.0481	529.08105	-811.58197	316.93909	492.58755	-796.99225	246.26169	268.78387	-810.39508	274.18332	210.70631	-800.17889	296.38293	272.12021	-807.69434	305.59094	75.010651	-774.4234	271.14157	79.136505	-703.76392	348.47238	32.235943	-727.59235	177.43062	33.726372	-814.78064	149.08788	42.104614	-754.62714	156.32837	39.581306	-785.25476	197.65872	781.29419	-373.27615	148.55383	772.20911	-373.57132	136.47697	832.7489	-377.2774	219.69785	465.19	-298.55319	158.53926	473.62711	-919.93549	146.14864	455.95129	-860.81274	138.40436	389.80304	-874.13403	91.197403	854.03503	-829.56885	110.12012	798.6051	-851.52832	134.23462	873.6413	-843.88074
581	2.895	-198.28578	980.00537	-598.68353	-177.60873	988.6795	-538.58112	-153.18353	1006.6197	-666.63361	218.16391	239.66779	-1724.7903	193.72337	251.29237	497.70386	493.39529	868.57886	-662.16443	492.38159	868.37341	-589.26428				483.17505	874.79987	-625.26862	283.32477	532.0177	-434.92929	66.725723	1071.2401	-590.04877	71.112953	910.98615	-599.34302	332.03055	963.61414	-613.86548	26.592615	928.18634	-736.67261	54.640202	929.39233	-442.94186	345.54608	550.71838	-429.13452	317.32074	496.40637	-445.39908	246.38017	236.06239	-427.25092	297.5788	237.01732	-429.95258	273.10931	176.40508	-435.88043	280.86649	74.141632	-520.1994	300.32059	72.986206	-445.62057	341.4126	36.806473	-489.7099	144.08406	45.139286	-473.37338	174.4236	29.018852	-397.99423	146.96979	42.555824	-438.05133	345.315	548.00458	-819.27625	283.08099	528.97559	-811.53857	316.96606	492.30862	-797.07281	246.6788	269.42572	-810.57233	274.12393	210.67111	-800.22107	296.2587	272.08405	-807.6665	305.5722	75.012375	-774.46375	271.13773	79.139885	-703.8078	348.45877	32.244923	-727.60834	177.44582	33.722118	-814.80188	149.05022	42.140915	-754.66144	156.33424	39.604454	-785.27899	197.49736	778.00159	-373.63177	148.24887	768.71722	-374.47684	136.25127	829.33783	-377.52084	220.23334	461.77994	-299.69998	158.46761	469.94806	-918.87836	145.86481	452.5907	-859.07611	138.58504	386.15454	-872.65643	90.638069	850.56342	-829.20166	109.58553	795.04407	-851.1311	133.69034	870.02509	-843.75305
582	2.9	-198.53873	976.13336	-598.54663	-177.83792	984.95367	-538.46869	-153.5031	1002.8323	-666.51013	218.13275	239.68124	-1724.8044	193.71324	251.29559	497.69687	493.87088	867.38275	-662.0343	492.83884	867.18506	-589.18176				483.67752	873.9162	-625.08582	283.33713	531.69098	-435.1044	65.971886	1068.1321	-589.9776	71.228783	907.85468	-599.29376	331.91061	961.86072	-613.87549	26.507816	924.5274	-736.10724	54.76952	926.12537	-443.18109	345.55795	550.28961	-429.26602	317.0296	495.73785	-445.95914	246.33337	236.0289	-427.3111	297.43378	237.06171	-430.0162	273.00348	176.36711	-435.93097	280.86917	74.124428	-520.22418	300.32468	72.999443	-445.59818	341.41888	36.80183	-489.70163	144.05846	45.157253	-473.39685	174.42165	29.047243	-398.01315	146.98848	42.586582	-438.04712	346.41339	546.97113	-818.98511	282.70859	529.11328	-810.53918	316.99075	491.9342	-797.21704	246.46219	269.14032	-810.65259	274.08542	210.65436	-800.27448	296.0163	271.9465	-807.37012	305.56454	74.994812	-774.51849	271.12283	79.204391	-703.88269	348.46072	32.243229	-727.60724	177.43335	33.721043	-814.82947	149.10542	42.120056	-754.65253	156.34189	39.62244	-785.29358	197.39801	774.74866	-373.91867	148.13657	765.36835	-374.9061	136.0638	825.95941	-377.78375	220.76038	458.45047	-300.84027	158.13419	466.42355	-917.73566	145.90778	448.89514	-858.45374	138.72067	382.70886	-871.15845	90.137039	847.1087	-828.93188	109.07124	791.5022	-850.77106	133.11169	866.67249	-843.57605
583	2.905	-198.78143	972.29633	-598.39185	-178.1301	981.14551	-538.38324	-153.81697	999.04187	-666.41669	218.13751	239.67375	-1724.7949	193.73491	251.29718	497.68683	494.38675	866.19348	-661.87958	493.23633	866.06317	-589.05255				484.08408	872.36017	-625.08069	283.39011	531.30322	-435.25998	65.321129	1065.0803	-589.94727	71.322403	904.78979	-599.19965	331.76416	960.15533	-613.84814	26.247545	921.05853	-735.78931	54.765087	922.83588	-443.58099	345.64145	549.90594	-429.28915	316.76328	495.16113	-446.36157	245.87772	235.68369	-427.88879	297.25961	237.09254	-430.09845	272.88135	176.37643	-436.01569	280.85138	74.106499	-520.20349	300.35452	72.960594	-445.57007	341.42294	36.815948	-489.689	144.03528	45.234756	-473.41818	174.44771	29.029213	-398.02267	147.00969	42.685047	-438.00516	345.71774	547.08807	-819.33331	282.8418	528.88739	-810.71173	317.04163	491.54495	-797.37225	246.24303	269.09836	-810.64215	274.00787	210.58508	-800.36139	295.72467	271.73312	-806.94672	305.54169	75.007896	-774.56158	271.10907	79.177246	-703.91205	348.46027	32.241344	-727.6076	177.44429	33.710026	-814.8515	149.06691	42.173679	-754.69067	156.44991	39.531929	-785.29218	197.28441	771.53027	-374.2215	148.03264	762.09985	-375.30487	136.13437	822.70129	-377.4679	221.27222	455.13248	-302.01062	157.72269	462.63269	-916.82324	146.41467	445.47293	-857.35547	138.8109	379.23553	-869.87952	89.699394	843.68384	-828.63885	108.57408	788.09088	-850.37219	132.56409	863.34808	-843.39832
584	2.91	-198.96982	968.42065	-598.28278	-178.32837	977.44751	-538.23669	-153.93408	995.06989	-665.94312	218.21292	239.47414	-1724.9049	193.71991	251.28943	497.68967	494.77832	865.00861	-661.87555	493.58643	864.91449	-588.88623				484.51749	871.25696	-624.89221	283.39774	530.98779	-435.40219	64.662575	1062.0347	-589.89508	71.423332	901.86084	-599.09204	331.63397	958.47198	-613.8327	25.936325	917.67444	-735.52881	54.747589	919.48572	-444.02496	345.71112	549.26953	-429.4408	316.49628	494.53894	-446.96741	246.11444	236.10286	-427.37805	297.0397	236.94623	-430.1521	272.84006	176.35074	-436.06686	280.84259	74.105034	-520.22052	300.35568	72.970512	-445.53104	341.4415	36.788124	-489.67807	144.01991	45.301487	-473.42947	174.45076	29.031567	-398.03665	146.99565	42.643353	-438.06079	346.02515	546.41815	-819.56543	283.29504	528.47668	-811.55731	317.03247	491.21921	-797.50354	245.86899	268.64349	-810.70007	273.9361	210.478	-800.45428	295.84683	272.13034	-807.51117	305.55521	75.003487	-774.62128	271.08572	79.224976	-703.9859	348.46271	32.234501	-727.61328	177.46068	33.705959	-814.87115	149.07243	42.166889	-754.71759	156.33508	39.668163	-785.35486	197.17181	768.36316	-374.53452	147.98367	758.83356	-375.67258	135.68152	819.38672	-378.26865	221.76843	451.87991	-303.12323	157.5293	459.18506	-915.83368	146.60141	442.16098	-856.00616	138.99818	375.83408	-868.61462	89.247978	840.33191	-828.34509	108.15256	784.69122	-850.01703	132.15016	859.83002	-843.25989
585	2.915	-199.16168	964.52399	-598.19415	-178.61307	973.70148	-538.14856	-154.25439	991.32849	-665.88373	218.19669	239.50346	-1724.9067	193.73906	251.29846	497.68597	495.23962	863.81696	-661.73328	493.99582	863.73517	-588.77985				484.99472	870.00171	-624.88513	283.41748	530.64178	-435.58768	63.969299	1058.9028	-589.87708	71.538345	898.87079	-599.10626	331.49106	956.82648	-613.80542	25.59243	914.37109	-735.23737	54.713455	916.07031	-444.48492	345.79282	548.76611	-429.57361	316.28955	493.93741	-447.42969	245.83374	235.88371	-427.79599	296.86548	236.90077	-430.22714	272.72723	176.34052	-436.11444	280.84348	74.091415	-520.21576	300.33694	72.948959	-445.51343	341.44827	36.784569	-489.66333	144.03236	45.353821	-473.44128	174.46452	29.041138	-398.05133	146.99982	42.702686	-438.0621	346.34753	545.77417	-819.66913	283.23422	528.27899	-810.97516	317.05225	490.93997	-797.64209	245.8699	268.92667	-810.76727	273.8519	210.37654	-800.55505	295.29056	271.646	-806.65448	305.54932	75.000961	-774.66742	271.07062	79.225067	-704.039	348.45529	32.224483	-727.63232	177.45177	33.711132	-814.89996	149.08826	42.181652	-754.72424	156.49202	39.5163	-785.32117	197.04393	765.2016	-374.8342	147.86665	755.52533	-376.08066	135.44743	816.04694	-378.55792	222.31375	448.61841	-304.25455	157.38371	455.71301	-915.02802	146.70276	438.87161	-854.92242	139.17981	372.48889	-867.4411	88.794426	837.07825	-828.04285	107.70583	781.46484	-849.67877	131.65591	856.64374	-843.04028
586	2.92	-199.39642	960.64783	-598.06311	-178.78487	970.10742	-537.95056	-154.70261	987.76721	-666.04688	218.14098	239.65445	-1724.8027	193.73439	251.30171	497.69162	495.62231	862.68866	-661.66132	494.47763	862.42426	-588.78003				485.46188	869.09094	-624.74072	283.47485	530.35126	-435.74606	63.294567	1056.0271	-589.75842	71.442261	895.64722	-599.01477	331.35028	955.11206	-613.75983	25.251467	911.15149	-734.88544	54.665646	912.89111	-444.85077	345.94876	548.21399	-429.67676	316.13403	493.37589	-447.81168	245.95413	236.14571	-427.44241	297.21783	237.68445	-430.36853	272.7731	176.28668	-436.13223	280.84906	74.098953	-520.21313	300.33594	72.947098	-445.49591	341.44147	36.787399	-489.65125	144.00998	45.395889	-473.45377	174.4521	29.102377	-398.05338	147.03918	42.746735	-438.01813	346.60138	545.18646	-819.91522	283.32544	528.19281	-811.12146	317.10498	490.55762	-797.79767	245.71199	268.83673	-810.85651	273.76733	210.27293	-800.68353	295.62476	271.99802	-807.76709	305.56113	74.984367	-774.74792	271.06381	79.24823	-704.11938	348.45294	32.229294	-727.64203	177.4592	33.708511	-814.90753	149.08429	42.211437	-754.76196	156.38843	39.678955	-785.38214	196.96045	762.10327	-375.1571	147.81519	752.39917	-376.52594	135.22635	812.854	-378.83472	222.8571	445.45956	-305.35834	157.46588	452.48703	-914.08264	146.53142	435.37341	-854.50336	139.3792	369.17819	-866.36334	88.40522	833.81494	-827.81854	107.32524	778.2193	-849.34625	131.14729	853.47906	-842.79816
